<svg enable-background="new 0 0 256 256" height="512" viewBox="0 0 256 256" width="512" xmlns="http://www.w3.org/2000/svg"><g id="Layer_58"><g><g><path d="m153.662 131.128h-51.324c-5.943 0-10.805 4.862-10.805 10.805v88.242c0 5.943 4.862 10.805 10.805 10.805h51.324c5.943 0 10.805-4.862 10.805-10.805v-88.242c0-5.943-4.862-10.805-10.805-10.805z" fill="#6cadef"/></g><g><path d="m216.836 72.175c-9.876-1.841-17.639-9.158-20.085-18.902-5.458-21.742-25.128-38.253-49.052-38.253-18.608 0-34.857 10.061-43.63 25.035-1.401 2.391-4.424 3.197-6.85 1.86-5.312-2.927-11.416-4.594-17.91-4.594-20.633 0-37.097 16.733-37.163 36.989-.008 2.523-1.859 4.653-4.359 4.996-18.115 2.484-32.071 18.015-32.071 36.813 0 20.527 16.641 37.168 37.169 37.168h.914v-40.102c0-5.358 4.384-9.742 9.742-9.742h46.273c5.358 0 9.742 4.384 9.742 9.742v17.943h36.893v-17.943c0-5.358 4.384-9.742 9.742-9.742h46.273c5.358 0 9.742 4.384 9.742 9.742v39.996c21.271-1.442 38.082-19.142 38.082-40.779-.004-20.55-14.908-36.771-33.452-40.227z" fill="#9be5f9"/></g><g><path d="m202.46 103.443h-46.273c-5.358 0-9.742 4.384-9.742 9.742v17.943h7.216c5.943 0 10.805 4.862 10.805 10.805v60.55h37.993c5.358 0 9.742-4.384 9.742-9.742v-79.556c.001-5.358-4.383-9.742-9.741-9.742z" fill="#5290db"/></g><g><path d="m91.533 141.933c0-5.943 4.862-10.805 10.805-10.805h7.216v-17.943c0-5.358-4.384-9.742-9.742-9.742h-46.273c-5.358 0-9.742 4.384-9.742 9.742v79.556c0 5.358 4.384 9.742 9.742 9.742h37.993v-60.55z" fill="#5290db"/></g><g><path d="m149.322 150.937h-42.645c-2.634 0-4.79 2.155-4.79 4.79v.325c0 2.634 2.155 4.79 4.79 4.79h42.645c2.635 0 4.79-2.155 4.79-4.79v-.325c0-2.634-2.155-4.79-4.79-4.79z" fill="#9be5f9"/></g><g><path d="m149.322 171.047h-42.645c-2.634 0-4.79 2.155-4.79 4.79v.325c0 2.634 2.155 4.79 4.79 4.79h42.645c2.635 0 4.79-2.155 4.79-4.79v-.325c0-2.635-2.155-4.79-4.79-4.79z" fill="#70d6f9"/></g><g><path d="m149.322 191.156h-42.645c-2.634 0-4.79 2.155-4.79 4.79v.325c0 2.634 2.155 4.79 4.79 4.79h42.645c2.635 0 4.79-2.155 4.79-4.79v-.325c0-2.634-2.155-4.79-4.79-4.79z" fill="#9be5f9"/></g><g><path d="m149.322 211.266h-42.645c-2.634 0-4.79 2.155-4.79 4.79v.325c0 2.634 2.155 4.79 4.79 4.79h42.645c2.635 0 4.79-2.155 4.79-4.79v-.325c0-2.635-2.155-4.79-4.79-4.79z" fill="#70d6f9"/></g><g><path d="m198.548 121.303h-38.448c-2.375 0-4.318 1.943-4.318 4.318v.293c0 2.375 1.943 4.318 4.318 4.318h38.447c2.375 0 4.318-1.943 4.318-4.318v-.293c.001-2.375-1.942-4.318-4.317-4.318z" fill="#9be5f9"/></g><g><path d="m95.9 121.303h-38.448c-2.375 0-4.318 1.943-4.318 4.318v.293c0 2.375 1.943 4.318 4.318 4.318h38.448c2.375 0 4.318-1.943 4.318-4.318v-.293c0-2.375-1.943-4.318-4.318-4.318z" fill="#9be5f9"/></g><g><path d="m198.548 139.433h-34.386c.193.804.306 1.638.306 2.5v6.43h34.081c2.375 0 4.319-1.943 4.319-4.318v-.293c-.002-2.376-1.945-4.319-4.32-4.319z" fill="#70d6f9"/></g><g><path d="m198.548 157.563h-34.081v8.93h34.081c2.375 0 4.319-1.943 4.319-4.318v-.293c-.001-2.375-1.944-4.319-4.319-4.319z" fill="#9be5f9"/></g><g><path d="m198.548 175.694h-34.081v8.93h34.081c2.375 0 4.319-1.943 4.319-4.318v-.293c-.001-2.376-1.944-4.319-4.319-4.319z" fill="#70d6f9"/></g><g><path d="m57.452 139.433c-2.375 0-4.318 1.943-4.318 4.318v.293c0 2.375 1.943 4.318 4.318 4.318h34.081v-6.43c0-.861.113-1.696.306-2.5h-34.387z" fill="#70d6f9"/></g><g><path d="m91.533 157.563h-34.081c-2.375 0-4.318 1.943-4.318 4.318v.293c0 2.375 1.943 4.318 4.318 4.318h34.081z" fill="#9be5f9"/></g><g><path d="m91.533 175.694h-34.081c-2.375 0-4.318 1.943-4.318 4.319v.293c0 2.375 1.943 4.318 4.318 4.318h34.081z" fill="#70d6f9"/></g><g><path d="m149.322 211.266h-6.15v9.905h6.15c2.634 0 4.79-2.155 4.79-4.79v-.325c0-2.635-2.155-4.79-4.79-4.79z" fill="#fc657e"/></g><g><path d="m149.322 191.156h-6.15v9.905h6.15c2.634 0 4.79-2.155 4.79-4.79v-.325c0-2.634-2.155-4.79-4.79-4.79z" fill="#f98fa6"/></g><g><path d="m149.322 171.047h-6.15v9.905h6.15c2.634 0 4.79-2.155 4.79-4.79v-.325c0-2.635-2.155-4.79-4.79-4.79z" fill="#fc657e"/></g><g><path d="m149.322 150.937h-6.15v9.905h6.15c2.634 0 4.79-2.155 4.79-4.79v-.325c0-2.634-2.155-4.79-4.79-4.79z" fill="#f98fa6"/></g><g><path d="m198.548 175.694h-5.545v8.93h5.545c2.375 0 4.318-1.943 4.318-4.318v-.293c0-2.376-1.943-4.319-4.318-4.319z" fill="#fc657e"/></g><g><path d="m198.548 157.563h-5.545v8.93h5.545c2.375 0 4.318-1.943 4.318-4.318v-.293c0-2.375-1.943-4.319-4.318-4.319z" fill="#f98fa6"/></g><g><path d="m198.548 139.433h-5.545v8.93h5.545c2.375 0 4.318-1.943 4.318-4.318v-.293c0-2.375-1.943-4.319-4.318-4.319z" fill="#fc657e"/></g><g><path d="m198.548 121.303h-5.545v8.93h5.545c2.375 0 4.318-1.943 4.318-4.318v-.293c0-2.376-1.943-4.319-4.318-4.319z" fill="#f98fa6"/></g><g><path d="m95.9 121.303h-5.545v8.93h5.545c2.375 0 4.318-1.943 4.318-4.318v-.293c0-2.376-1.943-4.319-4.318-4.319z" fill="#f98fa6"/></g><g><path d="m239.925 175.525c-3.1-.6-5.6-3-6.2-6.1 0-.1-.3-.1-.3 0-.6 3.1-3.1 5.5-6.2 6.1-.1 0-.1.2 0 .3 3.1.6 5.6 3 6.2 6.1 0 .1.3.1.3 0 .6-3.1 3.1-5.5 6.2-6.1.1-.1.1-.3 0-.3z" fill="#fc657e"/></g><g><circle cx="252.6" cy="69.925" fill="#87d147" r="3.4"/></g><g><path d="m215.088 43.525c4.5-.8 8-4.3 8.9-8.7 0-.2.4-.2.4 0 .9 4.4 4.4 7.9 8.9 8.7.2 0 .2.3 0 .4-4.5.8-8 4.3-8.9 8.7 0 .2-.4.2-.4 0-.9-4.4-4.4-7.9-8.9-8.7-.2-.1-.2-.4 0-.4z" fill="#f5c84c"/></g><g><path d="m153.662 243.479h-51.324c-7.336 0-13.305-5.969-13.305-13.305v-88.242c0-7.336 5.969-13.305 13.305-13.305h51.324c7.336 0 13.305 5.969 13.305 13.305v88.242c0 7.337-5.969 13.305-13.305 13.305zm-51.324-109.851c-4.58 0-8.305 3.726-8.305 8.305v88.242c0 4.579 3.726 8.305 8.305 8.305h51.324c4.579 0 8.305-3.726 8.305-8.305v-88.242c0-4.579-3.726-8.305-8.305-8.305z"/></g><g><path d="m42.884 155.787c-21.873 0-39.668-17.795-39.668-39.668 0-19.723 14.716-36.614 34.231-39.29 1.27-.175 2.195-1.237 2.199-2.528.07-21.769 17.863-39.479 39.663-39.479 6.683 0 13.293 1.696 19.117 4.904 1.246.687 2.777.275 3.487-.935 9.493-16.204 27.038-26.271 45.787-26.271 24.376 0 45.544 16.508 51.477 40.145 2.222 8.849 9.164 15.383 18.118 17.052 20.564 3.833 35.49 21.784 35.49 42.685 0 22.56-16.926 41.128-39.37 43.19-1.375.14-2.592-.886-2.718-2.261-.127-1.375.886-2.592 2.261-2.718 19.854-1.825 34.827-18.253 34.827-38.212 0-18.493-13.208-34.378-31.406-37.769-10.898-2.031-19.348-9.982-22.052-20.751-5.373-21.409-24.547-36.361-46.627-36.361-16.981 0-32.873 9.119-41.473 23.798-2.09 3.568-6.575 4.792-10.214 2.786-5.086-2.802-10.862-4.283-16.704-4.283-19.052 0-34.601 15.475-34.663 34.496-.013 3.748-2.816 6.957-6.52 7.465-17.051 2.339-29.91 17.101-29.91 34.337 0 19.116 15.552 34.668 34.668 34.668 1.381 0 2.5 1.119 2.5 2.5s-1.119 2.5-2.5 2.5z"/></g><g><path d="m202.461 204.983h-36.586c-1.381 0-2.5-1.119-2.5-2.5s1.119-2.5 2.5-2.5h36.586c3.993 0 7.241-3.249 7.241-7.242v-79.556c0-3.993-3.248-7.242-7.241-7.242h-46.273c-3.993 0-7.241 3.249-7.241 7.242v17.047c0 1.381-1.119 2.5-2.5 2.5s-2.5-1.119-2.5-2.5v-17.047c0-6.75 5.491-12.242 12.241-12.242h46.273c6.75 0 12.241 5.492 12.241 12.242v79.556c0 6.75-5.491 12.242-12.241 12.242z"/></g><g><path d="m90.667 204.983h-37.127c-6.75 0-12.242-5.492-12.242-12.242v-79.556c0-6.75 5.492-12.242 12.242-12.242h46.272c6.75 0 12.242 5.492 12.242 12.242v17.047c0 1.381-1.119 2.5-2.5 2.5s-2.5-1.119-2.5-2.5v-17.047c0-3.993-3.249-7.242-7.242-7.242h-46.272c-3.993 0-7.242 3.249-7.242 7.242v79.556c0 3.993 3.249 7.242 7.242 7.242h37.127c1.381 0 2.5 1.119 2.5 2.5s-1.119 2.5-2.5 2.5z"/></g><g><circle cx="3.4" cy="182.725" fill="#f5c84c" r="3.4"/></g><g><path d="m17.697 215.825h2.3v2.3c0 1.8 1.4 3.2 3.2 3.2 1.7 0 3.2-1.4 3.2-3.1v-.1-2.3h2.3c1.8 0 3.2-1.4 3.2-3.2 0-1.7-1.4-3.2-3.1-3.2h-.1-2.3v-2.3c0-1.8-1.4-3.2-3.2-3.2-1.7 0-3.2 1.4-3.2 3.1v.1 2.3h-2.3c-1.8 0-3.2 1.4-3.2 3.2-.1 1.7 1.3 3.2 3.2 3.2-.1 0-.1 0 0 0z" fill="#70d6f9"/></g><g><path d="m149.322 163.342h-42.645c-4.02 0-7.29-3.271-7.29-7.29v-.324c0-4.02 3.271-7.29 7.29-7.29h42.645c4.02 0 7.29 3.271 7.29 7.29v.324c0 4.019-3.27 7.29-7.29 7.29zm-42.644-9.904c-1.263 0-2.29 1.027-2.29 2.29v.324c0 1.263 1.027 2.29 2.29 2.29h42.645c1.263 0 2.29-1.027 2.29-2.29v-.324c0-1.263-1.027-2.29-2.29-2.29z"/></g><g><path d="m149.322 183.451h-42.645c-4.02 0-7.29-3.271-7.29-7.29v-.324c0-4.02 3.271-7.29 7.29-7.29h42.645c4.02 0 7.29 3.271 7.29 7.29v.324c0 4.02-3.27 7.29-7.29 7.29zm-42.644-9.904c-1.263 0-2.29 1.027-2.29 2.29v.324c0 1.263 1.027 2.29 2.29 2.29h42.645c1.263 0 2.29-1.027 2.29-2.29v-.324c0-1.263-1.027-2.29-2.29-2.29z"/></g><g><path d="m149.322 203.561h-42.645c-4.02 0-7.29-3.27-7.29-7.289v-.325c0-4.02 3.271-7.29 7.29-7.29h42.645c4.02 0 7.29 3.271 7.29 7.29v.325c0 4.019-3.27 7.289-7.29 7.289zm-42.644-9.905c-1.263 0-2.29 1.027-2.29 2.29v.325c0 1.262 1.027 2.289 2.29 2.289h42.645c1.263 0 2.29-1.027 2.29-2.289v-.325c0-1.263-1.027-2.29-2.29-2.29z"/></g><g><path d="m149.322 223.671h-42.645c-4.02 0-7.29-3.271-7.29-7.29v-.325c0-4.02 3.271-7.29 7.29-7.29h42.645c4.02 0 7.29 3.271 7.29 7.29v.325c0 4.019-3.27 7.29-7.29 7.29zm-42.644-9.905c-1.263 0-2.29 1.027-2.29 2.29v.325c0 1.263 1.027 2.29 2.29 2.29h42.645c1.263 0 2.29-1.027 2.29-2.29v-.325c0-1.263-1.027-2.29-2.29-2.29z"/></g><g><path d="m198.548 132.732h-38.447c-3.76 0-6.818-3.059-6.818-6.818v-.293c0-3.76 3.059-6.818 6.818-6.818h38.447c3.76 0 6.818 3.059 6.818 6.818v.293c0 3.76-3.058 6.818-6.818 6.818zm-38.447-8.929c-1.003 0-1.818.815-1.818 1.818v.293c0 1.003.815 1.818 1.818 1.818h38.447c1.003 0 1.818-.815 1.818-1.818v-.293c0-1.003-.815-1.818-1.818-1.818z"/></g><g><path d="m95.899 132.732h-38.447c-3.76 0-6.818-3.059-6.818-6.818v-.293c0-3.76 3.059-6.818 6.818-6.818h38.447c3.76 0 6.818 3.059 6.818 6.818v.293c.001 3.76-3.058 6.818-6.818 6.818zm-38.447-8.929c-1.002 0-1.818.815-1.818 1.818v.293c0 1.003.816 1.818 1.818 1.818h38.447c1.002 0 1.818-.815 1.818-1.818v-.293c0-1.003-.816-1.818-1.818-1.818z"/></g><g><path d="m198.548 150.863h-33.006c-1.381 0-2.5-1.119-2.5-2.5s1.119-2.5 2.5-2.5h33.006c1.003 0 1.818-.815 1.818-1.818v-.293c0-1.003-.815-1.818-1.818-1.818h-33.548c-1.381 0-2.5-1.119-2.5-2.5s1.119-2.5 2.5-2.5h33.548c3.76 0 6.818 3.059 6.818 6.818v.293c0 3.76-3.058 6.818-6.818 6.818z"/></g><g><path d="m198.548 168.993h-33.006c-1.381 0-2.5-1.119-2.5-2.5s1.119-2.5 2.5-2.5h33.006c1.003 0 1.818-.815 1.818-1.818v-.293c0-1.003-.815-1.818-1.818-1.818h-33.006c-1.381 0-2.5-1.119-2.5-2.5s1.119-2.5 2.5-2.5h33.006c3.76 0 6.818 3.059 6.818 6.818v.293c0 3.76-3.058 6.818-6.818 6.818z"/></g><g><path d="m198.548 187.123h-33.006c-1.381 0-2.5-1.119-2.5-2.5s1.119-2.5 2.5-2.5h33.006c1.003 0 1.818-.815 1.818-1.818v-.293c0-1.003-.815-1.818-1.818-1.818h-32.756c-1.381 0-2.5-1.119-2.5-2.5s1.119-2.5 2.5-2.5h32.756c3.76 0 6.818 3.059 6.818 6.818v.293c0 3.759-3.058 6.818-6.818 6.818z"/></g><g><path d="m90.844 150.863h-33.392c-3.76 0-6.818-3.059-6.818-6.818v-.293c0-3.76 3.059-6.818 6.818-6.818h33.642c1.381 0 2.5 1.119 2.5 2.5s-1.119 2.5-2.5 2.5h-33.642c-1.002 0-1.818.815-1.818 1.818v.293c0 1.003.816 1.818 1.818 1.818h33.392c1.381 0 2.5 1.119 2.5 2.5s-1.119 2.5-2.5 2.5z"/></g><g><path d="m90.531 168.993h-33.079c-3.76 0-6.818-3.059-6.818-6.818v-.293c0-3.76 3.059-6.818 6.818-6.818h33.204c1.381 0 2.5 1.119 2.5 2.5s-1.119 2.5-2.5 2.5h-33.204c-1.002 0-1.818.815-1.818 1.818v.293c0 1.003.816 1.818 1.818 1.818h33.079c1.381 0 2.5 1.119 2.5 2.5s-1.119 2.5-2.5 2.5z"/></g><g><path d="m90.688 187.123h-33.236c-3.76 0-6.818-3.059-6.818-6.818v-.293c0-3.76 3.059-6.818 6.818-6.818h33.111c1.381 0 2.5 1.119 2.5 2.5s-1.119 2.5-2.5 2.5h-33.111c-1.002 0-1.818.815-1.818 1.818v.293c0 1.003.816 1.818 1.818 1.818h33.236c1.381 0 2.5 1.119 2.5 2.5s-1.119 2.5-2.5 2.5z"/></g><g><path d="m143.172 222.75c-1.381 0-2.5-1.119-2.5-2.5v-8.063c0-1.381 1.119-2.5 2.5-2.5s2.5 1.119 2.5 2.5v8.063c0 1.381-1.119 2.5-2.5 2.5z"/></g><g><path d="m143.172 202.625c-1.381 0-2.5-1.119-2.5-2.5v-7.667c0-1.381 1.119-2.5 2.5-2.5s2.5 1.119 2.5 2.5v7.667c0 1.381-1.119 2.5-2.5 2.5z"/></g><g><path d="m143.172 182.659c-1.381 0-2.5-1.119-2.5-2.5v-8.034c0-1.381 1.119-2.5 2.5-2.5s2.5 1.119 2.5 2.5v8.034c0 1.381-1.119 2.5-2.5 2.5z"/></g><g><path d="m143.172 162c-1.381 0-2.5-1.119-2.5-2.5v-7.438c0-1.381 1.119-2.5 2.5-2.5s2.5 1.119 2.5 2.5v7.438c0 1.381-1.119 2.5-2.5 2.5z"/></g><g><path d="m193.003 186.125c-1.381 0-2.5-1.119-2.5-2.5v-6.938c0-1.381 1.119-2.5 2.5-2.5s2.5 1.119 2.5 2.5v6.938c0 1.381-1.119 2.5-2.5 2.5z"/></g><g><path d="m193.003 167.875c-1.381 0-2.5-1.119-2.5-2.5v-6.75c0-1.381 1.119-2.5 2.5-2.5s2.5 1.119 2.5 2.5v6.75c0 1.381-1.119 2.5-2.5 2.5z"/></g><g><path d="m193.003 149.583c-1.381 0-2.5-1.119-2.5-2.5v-6.583c0-1.381 1.119-2.5 2.5-2.5s2.5 1.119 2.5 2.5v6.583c0 1.381-1.119 2.5-2.5 2.5z"/></g><g><path d="m193.003 131.375c-1.381 0-2.5-1.119-2.5-2.5v-6.188c0-1.381 1.119-2.5 2.5-2.5s2.5 1.119 2.5 2.5v6.188c0 1.381-1.119 2.5-2.5 2.5z"/></g><g><path d="m90.354 131.708c-1.381 0-2.5-1.119-2.5-2.5v-6.5c0-1.381 1.119-2.5 2.5-2.5s2.5 1.119 2.5 2.5v6.5c0 1.381-1.119 2.5-2.5 2.5z"/></g></g></g></svg>