<svg height="512" viewBox="0 0 64 64" width="512" xmlns="http://www.w3.org/2000/svg" xmlns:xlink="http://www.w3.org/1999/xlink"><linearGradient id="New_Gradient_Swatch_3" gradientUnits="userSpaceOnUse" x1="31.5" x2="31.5" y1="62.487" y2="2.832"><stop offset="0" stop-color="#006df0"/><stop offset="1" stop-color="#00e7f0"/></linearGradient><linearGradient id="New_Gradient_Swatch_3-2" x1="25" x2="25" xlink:href="#New_Gradient_Swatch_3" y1="62.487" y2="2.832"/><linearGradient id="New_Gradient_Swatch_3-3" x1="18.5" x2="18.5" xlink:href="#New_Gradient_Swatch_3" y1="62.487" y2="2.832"/><linearGradient id="New_Gradient_Swatch_3-7" x1="24" x2="24" xlink:href="#New_Gradient_Swatch_3" y1="62.487" y2="2.832"/><linearGradient id="New_Gradient_Swatch_3-8" x1="30" x2="30" xlink:href="#New_Gradient_Swatch_3" y1="62.487" y2="2.832"/><linearGradient id="New_Gradient_Swatch_3-9" x1="36" x2="36" xlink:href="#New_Gradient_Swatch_3" y1="62.487" y2="2.832"/><linearGradient id="New_Gradient_Swatch_3-10" x1="27" x2="27" xlink:href="#New_Gradient_Swatch_3" y1="62.487" y2="2.832"/><linearGradient id="New_Gradient_Swatch_3-11" x1="42" x2="42" xlink:href="#New_Gradient_Swatch_3" y1="62.487" y2="2.832"/><linearGradient id="New_Gradient_Swatch_3-15" x1="32" x2="32" xlink:href="#New_Gradient_Swatch_3" y1="62.487" y2="2.832"/><linearGradient id="New_Gradient_Swatch_3-16" x1="16.5" x2="16.5" xlink:href="#New_Gradient_Swatch_3" y1="62.487" y2="2.832"/><linearGradient id="New_Gradient_Swatch_3-17" x1="20.5" x2="20.5" xlink:href="#New_Gradient_Swatch_3" y1="62.487" y2="2.832"/><linearGradient id="New_Gradient_Swatch_3-18" x1="24.5" x2="24.5" xlink:href="#New_Gradient_Swatch_3" y1="62.487" y2="2.832"/><linearGradient id="New_Gradient_Swatch_3-19" x1="39" x2="39" xlink:href="#New_Gradient_Swatch_3" y1="62.487" y2="2.832"/><g id="coding-developer-web_development-web_design-programing" data-name="coding-developer-web development-web design-programing"><path d="m29.168 18.555a1 1 0 0 0 1.387.277l3-2a1 1 0 0 0 0-1.664l-3-2a1 1 0 0 0 -1.11 1.664l1.755 1.168-1.752 1.168a1 1 0 0 0 -.28 1.387z" fill="url(#New_Gradient_Swatch_3)"/><path d="m22.5 19.868a.988.988 0 0 0 .5.132 1 1 0 0 0 .869-.5l4-7a1 1 0 1 0 -1.736-.992l-4 7a1 1 0 0 0 .367 1.36z" fill="url(#New_Gradient_Swatch_3-2)"/><path d="m16.445 43.832 3 2a1 1 0 1 0 1.11-1.664l-1.755-1.168 1.752-1.168a1 1 0 1 0 -1.11-1.664l-3 2a1 1 0 0 0 0 1.664z" fill="url(#New_Gradient_Swatch_3-3)"/><path d="m16.445 16.832 3 2a1 1 0 1 0 1.11-1.664l-1.755-1.168 1.752-1.168a1 1 0 1 0 -1.11-1.664l-3 2a1 1 0 0 0 0 1.664z" fill="url(#New_Gradient_Swatch_3-3)"/><path d="m33.555 42.168-3-2a1 1 0 1 0 -1.11 1.664l1.755 1.168-1.752 1.168a1 1 0 0 0 1.11 1.664l3-2a1 1 0 0 0 0-1.664z" fill="url(#New_Gradient_Swatch_3)"/><path d="m27.5 38.132a1 1 0 0 0 -1.364.372l-4 7a1 1 0 0 0 .372 1.364.988.988 0 0 0 .492.132 1 1 0 0 0 .869-.5l4-7a1 1 0 0 0 -.369-1.368z" fill="url(#New_Gradient_Swatch_3-2)"/><path d="m23 24h2a1 1 0 0 0 0-2h-2a1 1 0 0 0 0 2z" fill="url(#New_Gradient_Swatch_3-7)"/><path d="m23 28h14a1 1 0 0 0 0-2h-14a1 1 0 0 0 0 2z" fill="url(#New_Gradient_Swatch_3-8)"/><path d="m29 24h14a1 1 0 0 0 0-2h-14a1 1 0 0 0 0 2z" fill="url(#New_Gradient_Swatch_3-9)"/><path d="m23 36h8a1 1 0 0 0 0-2h-8a1 1 0 0 0 0 2z" fill="url(#New_Gradient_Swatch_3-10)"/><path d="m43 26h-2a1 1 0 0 0 0 2h2a1 1 0 0 0 0-2z" fill="url(#New_Gradient_Swatch_3-11)"/><path d="m37 34h-2a1 1 0 0 0 0 2h2a1 1 0 0 0 0-2z" fill="url(#New_Gradient_Swatch_3-9)"/><path d="m23 32h2a1 1 0 0 0 0-2h-2a1 1 0 0 0 0 2z" fill="url(#New_Gradient_Swatch_3-7)"/><path d="m43 30h-14a1 1 0 0 0 0 2h14a1 1 0 0 0 0-2z" fill="url(#New_Gradient_Swatch_3-9)"/><path d="m61 52h-1v-35a5 5 0 0 0 -5-5h-3v-7a3.009 3.009 0 0 0 -3-3h-34a3.009 3.009 0 0 0 -3 3v7h-3a5 5 0 0 0 -5 5v35h-1a1 1 0 0 0 -1 1v4a5 5 0 0 0 5 5h50a5 5 0 0 0 5-5v-4a1 1 0 0 0 -1-1zm-9-38h3a3.009 3.009 0 0 1 3 3v35h-2v-35a1 1 0 0 0 -1-1h-3zm-38-9a1 1 0 0 1 1-1h34a1 1 0 0 1 1 1v3h-36zm0 5h36v37a1 1 0 0 1 -1 1h-34a1 1 0 0 1 -1-1zm1 40h34a3.009 3.009 0 0 0 3-3v-29h2v34h-44v-34h2v29a3.009 3.009 0 0 0 3 3zm22 4v1a1 1 0 0 1 -1 1h-8a1 1 0 0 1 -1-1v-1zm-31-37a3.009 3.009 0 0 1 3-3h3v2h-3a1 1 0 0 0 -1 1v35h-2zm54 40a3.009 3.009 0 0 1 -3 3h-50a3.009 3.009 0 0 1 -3-3v-3h21v1a3.009 3.009 0 0 0 3 3h8a3.009 3.009 0 0 0 3-3v-1h21z" fill="url(#New_Gradient_Swatch_3-15)"/><path d="m17 5h-1a1 1 0 0 0 0 2h1a1 1 0 0 0 0-2z" fill="url(#New_Gradient_Swatch_3-16)"/><path d="m21 5h-1a1 1 0 0 0 0 2h1a1 1 0 0 0 0-2z" fill="url(#New_Gradient_Swatch_3-17)"/><path d="m25 5h-1a1 1 0 0 0 0 2h1a1 1 0 0 0 0-2z" fill="url(#New_Gradient_Swatch_3-18)"/><path d="m47 5h-16a1 1 0 0 0 0 2h16a1 1 0 0 0 0-2z" fill="url(#New_Gradient_Swatch_3-19)"/></g></svg>